<svg width="600" height="600" viewBox="0 0 600 600" fill="none" xmlns="http://www.w3.org/2000/svg">
<rect width="600" height="600" rx="40" fill="#243642"/>
<path d="M430.602 230.309C430.602 230.044 430.707 229.789 430.894 229.602L459.179 201.288C459.809 200.658 460.886 201.104 460.886 201.995V479C460.886 479.552 460.439 480 459.886 480H431.602C431.05 480 430.602 479.552 430.602 479V230.309Z" fill="#FDFAF6"/>
<path d="M377.604 275.788C377.604 275.52 377.711 275.263 377.902 275.076L406.187 247.216C406.819 246.594 407.888 247.042 407.888 247.929V479C407.888 479.553 407.441 480 406.888 480H378.604C378.052 480 377.604 479.553 377.604 479V275.788Z" fill="#FDFAF6"/>
<path d="M234.537 412.115C234.726 411.906 234.995 411.788 235.276 411.788H399.318C399.87 411.788 400.318 412.235 400.318 412.788V441.103C400.318 441.656 399.87 442.103 399.318 442.103H209.515C208.647 442.103 208.191 441.073 208.776 440.43L234.537 412.115Z" fill="#FDFAF6"/>
<path d="M468.925 171.414C468.716 172.148 467.795 172.386 467.256 171.847L457.88 162.461C457.488 162.068 456.851 162.07 456.461 162.465L143.193 479.703C143.005 479.893 142.749 480 142.482 480H118.757C117.874 480 117.425 478.94 118.038 478.306L439.543 145.496C439.922 145.104 439.917 144.48 439.531 144.094L431.802 136.357C431.263 135.818 431.502 134.898 432.234 134.689L481.869 120.492C482.623 120.277 483.321 120.974 483.106 121.728L468.925 171.414Z" fill="#9BC885"/>
</svg>
