<svg width="128" height="128" viewBox="0 0 128 128" fill="none" xmlns="http://www.w3.org/2000/svg">
<rect width="128" height="128" rx="20" fill="#9E7CB5"/>
<path d="M34 36.2963C34 35.8154 34.1732 35.3507 34.4879 34.9872L43.4018 24.6909C43.7817 24.2521 44.3335 24 44.9139 24H83.0861C83.6665 24 84.2183 24.2521 84.5982 24.6909L93.5121 34.9872C93.8268 35.3507 94 35.8154 94 36.2963V102C94 103.105 93.1046 104 92 104H36C34.8954 104 34 103.105 34 102V36.2963Z" fill="#FDF8EF"/>
<path d="M46.5 31.4844C46.5 31.3492 46.5548 31.2196 46.6519 31.1255L51.3545 26.5654C51.4478 26.4749 51.5727 26.4243 51.7026 26.4243H76.2974C76.4273 26.4243 76.5522 26.4749 76.6455 26.5654L81.3481 31.1255C81.4452 31.2196 81.5 31.3492 81.5 31.4844V43.1824C81.5 43.3177 81.4452 43.4472 81.3481 43.5413L76.6455 48.1014C76.5522 48.1919 76.4273 48.2425 76.2974 48.2425H51.7026C51.5727 48.2425 51.4478 48.1919 51.3545 48.1014L46.6519 43.5413C46.5548 43.4472 46.5 43.3177 46.5 43.1824V31.4844Z" fill="#B1BAB1"/>
<path d="M39 82.1818C39 82.1818 45.0645 83.359 49 83.394C54.9384 83.4467 58.0613 80.9697 64 80.9697C69.9387 80.9697 73.0616 83.4467 79 83.394C82.9355 83.359 89 82.1818 89 82.1818V97.1515C89 98.2561 88.1046 99.1515 87 99.1515H41C39.8954 99.1515 39 98.2561 39 97.1515V82.1818Z" fill="#746E66"/>
</svg>
